<svg width="47" height="59" viewBox="0 0 47 59" fill="none" xmlns="http://www.w3.org/2000/svg">
<g clip-path="url(#clip0_7_9)">
<path d="M47 20.8428C47.0005 13.6676 45.2044 6.60752 41.7771 0.311876V0.311876C41.7699 0.29855 41.7614 0.2859 41.752 0.274073C41.6852 0.171473 41.5857 0.0947945 41.4697 0.0566976C41.4311 0.0434973 41.3911 0.0350342 41.3505 0.0314941H41.2093H41.1685C41.144 0.0359309 41.1199 0.0422518 41.0964 0.050398L41.0525 0.0692994L40.9897 0.100803L40.9489 0.129157L40.9082 0.16066L40.378 0.41899L39.9483 0.630064C39.7475 0.734026 39.5499 0.841138 39.3523 0.9451L38.957 1.15617C38.7374 1.27904 38.5241 1.40505 38.3077 1.53422L37.994 1.71694C37.6803 1.90911 37.3666 2.10758 37.0529 2.31236L36.8678 2.43837C36.6211 2.60219 36.3764 2.76916 36.1338 2.93928C36.0178 3.02119 35.9048 3.10625 35.7919 3.19131C35.6037 3.32677 35.4186 3.45909 35.2335 3.60086C35.1081 3.69537 34.9857 3.79618 34.8634 3.89384L34.3615 4.29393L33.985 4.60897C33.8282 4.74129 33.6714 4.87675 33.5145 5.01222C33.3577 5.14769 33.2667 5.23904 33.1412 5.35246L32.6926 5.76516L32.3256 6.1243C32.1845 6.26606 32.0402 6.40468 31.899 6.5496C31.7579 6.69451 31.6606 6.79848 31.5414 6.92449C31.4222 7.0505 31.2654 7.21432 31.1305 7.36239L30.7854 7.75303C30.6537 7.9011 30.5219 8.04917 30.3933 8.20039L30.0577 8.60993C29.9322 8.76115 29.8067 8.92497 29.6844 9.06989C29.562 9.2148 29.4679 9.35027 29.3707 9.49204L29.0131 9.96459C28.9096 10.1095 28.806 10.2544 28.6994 10.4025C28.5927 10.5506 28.4704 10.7175 28.3606 10.8876C28.2508 11.0578 28.1599 11.1869 28.0626 11.3381L27.843 11.6532L27.3882 11.5807L26.9365 11.5083C26.7012 11.4736 26.4628 11.4453 26.2244 11.4169L25.8197 11.3696C25.5437 11.3444 25.2645 11.3255 24.9853 11.3066C24.8881 11.3066 24.7908 11.3066 24.6936 11.2877C23.9313 11.2499 23.1659 11.2499 22.4037 11.2877C22.3064 11.2877 22.2123 11.2877 22.1182 11.3066C21.8359 11.3066 21.5536 11.3413 21.2712 11.3665C21.1364 11.3665 21.0015 11.398 20.8697 11.4138C20.6282 11.439 20.3866 11.4673 20.1451 11.502C19.9945 11.5209 19.8314 11.5492 19.6934 11.5713C19.5554 11.5933 19.3797 11.6185 19.2291 11.6469C19.157 11.5335 19.0817 11.4232 19.0095 11.3129C18.9374 11.2027 18.8119 10.9979 18.6959 10.8561C18.5798 10.7144 18.47 10.5411 18.3571 10.3678C18.2442 10.1946 18.1469 10.0717 18.0434 9.92678C17.9399 9.78187 17.8081 9.61175 17.6889 9.45423L17.3752 9.02578C17.2529 8.86826 17.1274 8.71075 17.0019 8.56583L16.66 8.14998C16.5314 7.99876 16.3997 7.85069 16.2679 7.70263C16.1362 7.55456 16.0326 7.43485 15.9134 7.30568C15.7942 7.17652 15.6405 7.01585 15.5056 6.87093C15.3708 6.72602 15.2641 6.6126 15.1418 6.48974C15.0194 6.36687 14.8563 6.20621 14.712 6.06759L14.3387 5.70215L13.8933 5.2926L13.4949 4.96181C13.3443 4.8295 13.1812 4.70033 13.0338 4.56802C12.8863 4.4357 12.7703 4.34434 12.6385 4.25298L12.1554 3.87179L11.7571 3.55675C11.5908 3.43074 11.4214 3.31102 11.2552 3.18816C11.0889 3.0653 10.9854 2.98969 10.8474 2.89518C10.7093 2.80066 10.4992 2.65575 10.3235 2.53918L9.9157 2.2651C9.73376 2.14539 9.54554 2.03197 9.36047 1.91856L8.95896 1.66653C8.76447 1.54997 8.56684 1.43971 8.36922 1.32629L7.97711 1.10262C7.75753 0.982904 7.53481 0.869491 7.31523 0.752928L6.9733 0.573357C6.63765 0.403237 6.29573 0.239419 5.95067 0.0819011C5.91626 0.0670621 5.88057 0.0554609 5.84403 0.0472469H5.80011H5.72796H5.66522H5.5868H5.5617H5.54602C5.51173 0.0573547 5.479 0.0721981 5.44878 0.0913518H5.42682C5.38988 0.115282 5.35614 0.143867 5.32643 0.176411V0.176411C5.31918 0.184029 5.31287 0.19249 5.30761 0.201614C5.28622 0.22404 5.26826 0.249517 5.25429 0.277222V0.277222C5.14764 0.472545 5.04726 0.674168 4.9406 0.87264C4.83395 1.07111 4.73357 1.25699 4.62691 1.45231C4.52026 1.64763 4.43555 1.84295 4.34145 2.03828C4.24734 2.2336 4.13755 2.44782 4.02776 2.66835C3.91797 2.88887 3.85837 3.04954 3.77367 3.23856C3.68897 3.42759 3.57605 3.67016 3.48194 3.88754C3.38784 4.10491 3.33766 4.24353 3.26237 4.4231C3.16513 4.65623 3.06787 4.88935 2.97377 5.12563C2.91103 5.28315 2.85456 5.44067 2.79496 5.60449C2.69772 5.86282 2.59734 6.118 2.50637 6.37632C2.44991 6.53384 2.39972 6.69136 2.34639 6.84888C2.25542 7.11351 2.16132 7.37499 2.07662 7.64277C2.02329 7.80659 1.97625 7.95781 1.92606 8.13738C1.8445 8.39886 1.76294 8.66034 1.68765 8.92182C1.64373 9.07304 1.60295 9.23686 1.56217 9.37862C1.48479 9.65585 1.40951 9.93309 1.33632 10.2103C1.29868 10.3584 1.2673 10.5033 1.2328 10.6514C1.16065 10.9381 1.09165 11.2247 1.02577 11.5146L0.94107 11.921C0.878332 12.236 0.812449 12.5227 0.755985 12.822C0.727753 12.9732 0.705798 13.1213 0.680703 13.2693C0.627376 13.5592 0.574052 13.8521 0.526998 14.142C0.50504 14.2869 0.486218 14.435 0.467397 14.5799C0.42348 14.876 0.376435 15.1721 0.338793 15.4683C0.316834 15.6604 0.298009 15.8495 0.276051 16.0416C0.247819 16.2937 0.216447 16.5488 0.194489 16.8009C0.172531 17.0529 0.153706 17.3175 0.131747 17.5759C0.131747 17.7649 0.100374 17.9508 0.0878263 18.1398C0.0878263 18.4139 0.0627327 18.6879 0.0501851 18.962C0.0501851 19.1353 0.0313776 19.3086 0.0251038 19.4818C0.0251038 19.9292 0.00314331 20.3797 0.00314331 20.827C0.00314331 21.4571 0.00314791 22.1029 0.0470643 22.7425C0.0909808 23.382 0.116064 24.0026 0.172528 24.6547C0.285456 25.9275 0.453798 27.1876 0.677563 28.4352C0.677563 28.4635 0.677562 28.4919 0.696383 28.5454V28.6147C0.721479 28.7534 0.746574 28.8951 0.774806 29.0274C2.43377 37.6341 6.70389 45.5145 12.9993 51.5872C15.3562 53.873 17.9652 55.8812 20.7756 57.5729C21.5724 58.0486 22.4068 58.518 23.2538 58.9433C23.3305 58.9826 23.4154 59.003 23.5016 59.003C23.5877 59.003 23.6726 58.9826 23.7494 58.9433C24.5368 58.5432 25.3523 58.0927 26.2401 57.5634C29.0583 55.8748 31.6739 53.8664 34.0352 51.5777C40.2952 45.5196 44.5459 37.6725 46.2095 29.103C46.2095 29.103 46.2095 29.103 46.2095 29.081C46.2409 28.9235 46.2691 28.766 46.3005 28.6116C46.2992 28.599 46.2992 28.5864 46.3005 28.5738V28.536C46.7621 25.9977 46.9962 23.423 47 20.8428ZM24.2952 47.4665C24.0254 47.9706 23.7619 48.4778 23.511 48.9881C22.7619 47.4542 21.924 45.9658 21.0015 44.5304C20.6878 44.0515 20.3741 43.5853 20.0604 43.1127C19.4895 42.2957 18.8935 41.4997 18.2724 40.7247C17.6513 39.9497 17.0061 39.1979 16.3369 38.4691C16.0013 38.1068 15.6625 37.7476 15.3143 37.3948C14.9661 37.042 14.6179 36.6954 14.2603 36.3552C11.3956 33.6238 8.17746 31.2926 4.6928 29.4244C4.25572 29.1913 3.81551 28.9644 3.37216 28.7439C2.92881 28.5234 2.48024 28.3134 2.02644 28.1138L1.99192 28.0981L1.95114 28.0792C1.9731 28.0162 1.99192 27.9532 2.01388 27.887L2.14562 27.5027C2.19581 27.3577 2.24914 27.216 2.30247 27.0774C2.3558 26.9387 2.39658 26.8222 2.44677 26.6962C2.49696 26.5702 2.5597 26.4158 2.6193 26.2772C2.6789 26.1386 2.72282 26.0283 2.77928 25.9023C2.83575 25.7763 2.90163 25.6313 2.96437 25.4959C3.0271 25.3604 3.07729 25.2501 3.13689 25.1273C3.19649 25.0044 3.26865 24.8595 3.33766 24.7272L3.52586 24.3649C3.59487 24.2357 3.66702 24.1066 3.73917 23.9774C3.81132 23.8482 3.87092 23.738 3.93993 23.6214C4.00895 23.5048 4.09364 23.3662 4.16892 23.2402L4.38223 22.8937L4.62691 22.5219C4.7022 22.4085 4.77434 22.2951 4.85276 22.1848L5.10999 21.8194L5.34839 21.5044C5.43623 21.3847 5.53033 21.2681 5.6213 21.1484C5.71227 21.0287 5.78443 20.9373 5.86913 20.8333C5.95382 20.7294 6.06361 20.6002 6.16086 20.4837C6.2581 20.3671 6.33025 20.2789 6.41808 20.1686C6.50592 20.0584 6.62512 19.9386 6.73177 19.8252C6.83843 19.7118 6.90429 19.6299 6.99212 19.5354L7.32463 19.1952C7.41246 19.1038 7.50031 19.0124 7.59128 18.9242C7.68225 18.836 7.83281 18.6911 7.95515 18.5745C8.07749 18.458 8.12454 18.4107 8.21238 18.332C8.35353 18.2028 8.49469 18.0799 8.63899 17.9539L8.85857 17.7586C9.07816 17.5727 9.30088 17.39 9.52987 17.2104L10.0474 16.8135L10.2294 16.6843L10.5776 16.4323L10.7972 16.2842L11.1109 16.0668L11.3493 15.9156L11.663 15.7172L11.9139 15.5659L12.2276 15.3832L12.4911 15.2383C12.5915 15.1816 12.695 15.1217 12.8048 15.0682C12.9146 15.0146 12.9836 14.9737 13.0746 14.9264L13.3882 14.7657L13.6643 14.6303L13.978 14.4822L14.2603 14.353L14.574 14.2144L14.8594 14.0947L15.1731 13.9656L15.4617 13.8521L15.7754 13.7324L16.0703 13.6285L16.384 13.5182L16.682 13.4205L16.9957 13.3197L17.3094 13.2347L17.623 13.1433L17.9367 13.0645L18.2692 12.9826L18.5829 12.9133L18.721 12.8818L18.8966 13.1748L19.1444 13.6033C19.2323 13.7608 19.317 13.9183 19.4017 14.0758C19.4863 14.2333 19.5585 14.3656 19.6338 14.5106C19.7091 14.6555 19.7969 14.8256 19.8785 14.9926L20.0949 15.4305L20.3208 15.9251C20.3866 16.07 20.4556 16.2181 20.5215 16.3661C20.5874 16.5142 20.6627 16.7001 20.7317 16.867C20.8007 17.034 20.854 17.1821 20.9136 17.3144C20.9732 17.4467 21.0454 17.6546 21.1081 17.8279C21.1709 18.0012 21.2211 18.124 21.2744 18.2752C21.3277 18.4265 21.3936 18.6249 21.4532 18.7982L21.6038 19.2487L21.7637 19.778C21.8077 19.9292 21.8547 20.093 21.8955 20.2316C21.9363 20.3702 21.9927 20.5939 22.0398 20.7735C22.0868 20.9531 22.1213 21.0885 22.1558 21.2271C22.1904 21.3658 22.2405 21.5926 22.2813 21.7753C22.3221 21.958 22.3535 22.0903 22.3848 22.229C22.4162 22.3676 22.457 22.6038 22.4915 22.7929C22.526 22.9819 22.5511 23.089 22.5762 23.2402C22.6013 23.3914 22.6358 23.6246 22.6672 23.8136C22.6985 24.0026 22.7142 24.1097 22.733 24.2609C22.7518 24.4122 22.7832 24.6516 22.8052 24.8501C22.824 24.995 22.8428 25.1399 22.8585 25.2848C22.8773 25.4927 22.893 25.7038 22.9118 25.9149C22.9118 26.0503 22.9369 26.1827 22.9463 26.3181C22.962 26.5512 22.9714 26.7844 22.9809 27.0175C22.9809 27.1278 22.9965 27.2412 22.9997 27.3546C23.0122 27.7011 23.0185 28.0477 23.0185 28.3942C23.0185 28.5404 23.0763 28.6807 23.1793 28.784C23.2822 28.8874 23.4219 28.9455 23.5674 28.9455C23.713 28.9455 23.8527 28.8874 23.9556 28.784C24.0586 28.6807 24.1164 28.5404 24.1164 28.3942C24.1164 28.0477 24.1164 27.7011 24.1321 27.3577L24.1509 27.0144C24.1509 26.7812 24.1697 26.5513 24.1854 26.3213C24.1854 26.1858 24.2105 26.0503 24.2199 25.9149C24.2387 25.707 24.2544 25.499 24.2732 25.2848C24.2889 25.1399 24.3077 24.995 24.3266 24.8469C24.3485 24.6516 24.3705 24.4563 24.3987 24.2609C24.4269 24.0656 24.4426 23.9459 24.4677 23.8073C24.4928 23.6687 24.5242 23.4324 24.5556 23.2434C24.5869 23.0543 24.612 22.9283 24.6403 22.7834C24.6685 22.6385 24.7093 22.4148 24.7469 22.2353C24.7846 22.0557 24.8159 21.9202 24.8504 21.7721C24.8849 21.6241 24.9289 21.4099 24.9728 21.2303C25.0167 21.0507 25.0512 20.9153 25.092 20.7672C25.1328 20.6191 25.1829 20.4143 25.2331 20.2379C25.2833 20.0615 25.3241 19.9229 25.368 19.778C25.4119 19.6331 25.4715 19.4283 25.5249 19.255C25.5782 19.0817 25.6284 18.94 25.6786 18.7951C25.7288 18.6501 25.7915 18.4548 25.8542 18.2847C25.917 18.1146 25.964 17.9697 26.0236 17.8247C26.0832 17.6798 26.146 17.4908 26.2118 17.3238C26.2777 17.1569 26.3373 17.0088 26.3969 16.8702C26.4565 16.7316 26.5349 16.5394 26.6071 16.3756C26.6792 16.2118 26.7388 16.0605 26.8079 15.9282C26.8769 15.7959 26.9553 15.6132 27.0306 15.4399C27.1059 15.2666 27.1749 15.1469 27.2502 14.9989C27.3254 14.8508 27.407 14.6838 27.4886 14.52C27.5701 14.3562 27.6423 14.2302 27.7207 14.0853C27.7991 13.9403 27.8932 13.7702 27.9811 13.6127C28.0689 13.4552 28.1442 13.3292 28.2289 13.1843L28.4014 12.8944L28.5363 12.9228L28.85 12.9921L29.1825 13.074L29.4742 13.1528L29.8067 13.2441L30.0985 13.3323L30.4121 13.4331L30.7007 13.5277L31.0144 13.6411L31.2999 13.7419L31.6136 13.8647L31.8959 13.975C32.0025 14.016 32.1092 14.0601 32.2096 14.1073L32.4888 14.2239L32.8024 14.3656L33.0785 14.4917L33.3922 14.6429L33.6588 14.772L33.9725 14.9359L34.236 15.0745C34.3395 15.128 34.4399 15.1879 34.5497 15.2446L34.81 15.3895L35.1237 15.5722C35.2084 15.6226 35.2931 15.6699 35.3747 15.7235L35.6884 15.9188L35.9268 16.07L36.2405 16.2842C36.3126 16.3346 36.3879 16.3819 36.4601 16.4354L36.8082 16.6843L36.987 16.8135L37.4984 17.2041C37.7242 17.3837 37.9501 17.5696 38.1697 17.7554L38.383 17.9445C38.5304 18.0705 38.6778 18.1996 38.819 18.3288C38.9037 18.4044 38.9821 18.4863 39.0668 18.5619C39.1515 18.6375 39.3209 18.8014 39.4432 18.9242C39.5656 19.0471 39.6126 19.0975 39.6973 19.1826C39.782 19.2676 39.9295 19.4188 40.0424 19.5385C40.1553 19.6583 40.2118 19.7244 40.2965 19.8158C40.3812 19.9071 40.5129 20.0552 40.6102 20.1749L40.858 20.4679L41.1717 20.8333L41.4069 21.1484C41.5042 21.2712 41.6014 21.3941 41.6924 21.5201C41.7833 21.6461 41.8461 21.7312 41.9214 21.8352L42.1912 22.2132L42.4076 22.5282C42.4923 22.6574 42.577 22.7834 42.6585 22.9157C42.7401 23.048 42.7997 23.1394 42.8656 23.2497L43.104 23.6435L43.2985 23.99L43.5181 24.3932C43.5808 24.5098 43.6404 24.6264 43.7 24.7461C43.7596 24.8658 43.838 25.017 43.9039 25.1556C43.9698 25.2943 44.02 25.3982 44.0764 25.5179L44.2646 25.9338C44.318 26.0566 44.3713 26.1827 44.4215 26.3055C44.4717 26.4284 44.5375 26.5859 44.594 26.7277C44.6505 26.8694 44.6913 26.9797 44.7383 27.1089C44.7854 27.238 44.8418 27.3924 44.8951 27.5373L45.0269 27.9248L45.0896 28.1201L45.0395 28.1422C36.2108 32.1282 28.9294 38.9151 24.314 47.4602L24.2952 47.4665ZM1.11987 19.5763C1.11987 19.4377 1.11987 19.2991 1.11987 19.1605C1.11987 18.877 1.14183 18.5934 1.16066 18.3099C1.16066 18.1461 1.18575 17.9949 1.1983 17.8184C1.21712 17.5633 1.2328 17.3049 1.2579 17.0498C1.2579 16.8733 1.2924 16.7001 1.31122 16.5268C1.33632 16.2811 1.36141 16.0353 1.38964 15.7928C1.4116 15.6132 1.43983 15.4336 1.46178 15.254C1.49629 15.0178 1.52453 14.7783 1.56217 14.5389C1.5904 14.3593 1.62178 14.1798 1.65315 13.9971C1.69079 13.7639 1.72843 13.5308 1.76921 13.2945C1.80372 13.1118 1.84135 12.9322 1.879 12.7495C1.91664 12.5668 1.96683 12.2864 2.01702 12.0564C2.05466 11.8769 2.09859 11.6941 2.1425 11.5114C2.18642 11.3287 2.24288 11.0578 2.29935 10.8309C2.35581 10.6041 2.39344 10.4655 2.44049 10.2828C2.48755 10.1001 2.55656 9.83227 2.6193 9.61175C2.68204 9.39122 2.72595 9.24631 2.77928 9.06358C2.83261 8.88086 2.90789 8.62253 2.97377 8.40201L3.15257 7.857C3.22158 7.63962 3.29373 7.42225 3.36588 7.20802C3.43803 6.9938 3.49763 6.84258 3.5635 6.65986C3.62938 6.47714 3.71407 6.23456 3.79563 6.02979C3.87719 5.82501 3.93679 5.66434 4.00894 5.48162C4.08109 5.2989 4.17207 5.06578 4.25676 4.85155C4.34146 4.63733 4.4136 4.48611 4.48889 4.30339C4.56418 4.12067 4.66455 3.89699 4.75552 3.69537C4.84649 3.49374 4.92179 3.33308 5.00648 3.1535C5.09118 2.97393 5.19155 2.75341 5.28879 2.55809C5.38604 2.36276 5.46759 2.19579 5.55856 2.01622C5.64953 1.83665 5.6966 1.74529 5.76875 1.60983C5.85658 1.74214 5.94128 1.87761 6.02597 2.01307C6.06675 2.07293 6.10751 2.13594 6.14516 2.19895C6.27691 2.41317 6.40553 2.63054 6.53101 2.84792L6.58747 2.95818C6.69099 3.1409 6.79137 3.32677 6.90116 3.51265C6.94194 3.58825 6.97644 3.66701 7.01722 3.74577C7.08937 3.89384 7.16152 4.03876 7.23053 4.18682C7.27444 4.27818 7.31209 4.36639 7.35287 4.45776C7.41561 4.59637 7.47521 4.73499 7.53482 4.8736C7.59442 5.01222 7.61324 5.06892 7.65402 5.16344C7.6948 5.25795 7.76067 5.43437 7.81086 5.56983C7.86105 5.7053 7.88614 5.77146 7.92065 5.88487C7.95515 5.99828 8.01789 6.15265 8.06181 6.28812C8.10573 6.42358 8.12769 6.49604 8.16219 6.60315L8.28452 7.0064C8.31589 7.11036 8.34413 7.21747 8.37236 7.32143C8.40059 7.4254 8.4445 7.59237 8.479 7.72783C8.51351 7.8633 8.53233 7.94206 8.55743 8.04287C8.58252 8.14368 8.62018 8.3201 8.64841 8.45556L8.71427 8.7706L8.78957 9.19275C8.80526 9.29986 8.82407 9.40697 8.83975 9.50778C8.85544 9.6086 8.88053 9.79762 8.89935 9.94254C8.91818 10.0875 8.93072 10.1505 8.94014 10.2576C8.94955 10.3647 8.97151 10.5726 8.9872 10.7144C8.9872 10.812 9.006 10.9129 9.01228 11.0137C9.01228 11.1806 9.03425 11.3508 9.04366 11.5209C9.04366 11.6059 9.04366 11.6878 9.04366 11.7729C9.04366 12.0281 9.04366 12.2833 9.04366 12.5384C9.04366 12.8755 9.04365 13.2158 9.01542 13.5529C9.01542 13.6663 8.99973 13.7765 8.99032 13.8868C8.99032 14.1136 8.96209 14.3373 8.94014 14.561C8.92445 14.6964 8.90562 14.8288 8.88993 14.9611C8.86484 15.1627 8.84288 15.3643 8.81151 15.5628C8.78955 15.7045 8.76133 15.8432 8.73623 15.9849C8.71113 16.1267 8.68292 16.3 8.65155 16.4575C8.50411 16.5741 8.36295 16.6938 8.22179 16.8135L8.08063 16.93C7.87151 17.117 7.66238 17.306 7.45325 17.4971L7.28385 17.6546C7.13328 17.7964 6.97016 17.9382 6.83528 18.0831L6.61569 18.3036C6.48708 18.4328 6.36161 18.5651 6.23614 18.6974L6.01341 18.9337C5.89107 19.066 5.76874 19.2015 5.64954 19.3369L5.4425 19.5732C5.31388 19.7244 5.18842 19.8882 5.05981 20.0331C5.00962 20.0993 4.95629 20.1623 4.90296 20.2253C4.7273 20.4458 4.5579 20.6664 4.39165 20.8932L4.30381 21.0161C4.16578 21.2019 4.03091 21.391 3.90229 21.58L3.73917 21.8226C3.63565 21.9769 3.53527 22.1376 3.42548 22.2888L3.2561 22.5597C3.16199 22.7141 3.07102 22.8748 2.98005 23.0228L2.82006 23.2969C2.72596 23.4639 2.63499 23.6309 2.54402 23.7978C2.5001 23.8797 2.45619 23.9617 2.41541 24.0436C2.28994 24.2798 2.17073 24.5193 2.05466 24.7618L2.03584 24.7996C1.9135 25.0548 1.79744 25.3132 1.68451 25.5715L1.58413 25.8172C1.52766 25.9495 1.47121 26.0787 1.41788 26.211C1.36769 25.8141 1.32376 25.4171 1.28298 25.0202L1.25476 24.724C1.22025 24.3365 1.18575 23.9459 1.16066 23.5521V23.549C1.13556 23.1489 1.11674 22.7519 1.10105 22.3518V22.0557C1.10105 21.6556 1.08223 21.2555 1.08223 20.8554C1.08223 20.4553 1.10419 19.9985 1.11987 19.5763ZM7.6446 2.14539L7.98025 2.33126C8.17787 2.44467 8.37236 2.56439 8.56998 2.68095L8.84289 2.84792C9.41172 3.20076 9.96694 3.5725 10.5086 3.96315L10.7532 4.14587C10.9415 4.28134 11.1265 4.4231 11.3116 4.56487C11.4089 4.63732 11.5061 4.71608 11.6002 4.79169C11.7696 4.92401 11.9327 5.05632 12.099 5.19179L12.3939 5.44067C12.5538 5.57613 12.7075 5.71475 12.8675 5.85337L13.153 6.10539L13.6329 6.5559L13.8839 6.79217C14.069 6.97489 14.2509 7.15761 14.4328 7.34349L14.5897 7.50416C14.8218 7.74358 15.0508 7.98931 15.2767 8.24134L15.4178 8.40201C15.5903 8.59733 15.7629 8.7958 15.9323 8.99743C16.0107 9.08879 16.0828 9.18015 16.1581 9.27151C16.2961 9.43848 16.4342 9.6086 16.5691 9.78187L16.8075 10.0969C16.9329 10.2639 17.0584 10.4277 17.1807 10.5978L17.416 10.9128C17.5384 11.083 17.6575 11.2562 17.7736 11.4295C17.8458 11.5366 17.921 11.6437 17.9932 11.7445C18.0214 11.7886 18.0497 11.8328 18.081 11.8769L17.9869 11.9021C17.6952 11.9714 17.4066 12.047 17.118 12.1289L16.9486 12.1761C16.6349 12.2675 16.3212 12.362 16.0075 12.466L15.8099 12.5321C15.5067 12.6371 15.2056 12.7474 14.9065 12.8629H14.8689C14.5552 12.9858 14.2572 13.115 13.956 13.2473L13.7584 13.3355C13.4635 13.4678 13.1687 13.6064 12.8801 13.7513L12.742 13.8238C12.4754 13.9593 12.2119 14.101 11.9515 14.2459L11.8041 14.3247C11.5218 14.4854 11.2457 14.6397 10.9697 14.8256L10.7909 14.9359C10.5117 15.1154 10.2325 15.2982 9.95648 15.4903C9.99413 15.2383 10.0255 14.9863 10.0506 14.7311C10.0506 14.7059 10.0506 14.6807 10.0506 14.6523C10.082 14.3562 10.1039 14.0569 10.1196 13.7545C10.1196 13.6726 10.1196 13.5875 10.1353 13.5024C10.1353 13.1874 10.1604 12.8535 10.1604 12.529C10.1604 12.2675 10.1604 12.0092 10.1604 11.7508C10.1604 11.6689 10.1604 11.5839 10.1604 11.502C10.1604 11.3255 10.1416 11.1491 10.129 10.9759C10.129 10.8782 10.1133 10.7837 10.107 10.686C10.107 10.5222 10.0757 10.371 10.0569 10.1977C10.0569 10.1001 10.0349 10.0024 10.0255 9.90788C10.0035 9.74091 9.98158 9.57394 9.95648 9.41012C9.95648 9.32191 9.93139 9.23055 9.9157 9.14234C9.88433 8.94702 9.84982 8.7517 9.81218 8.55953C9.81218 8.50282 9.79337 8.44611 9.78082 8.38941C9.73063 8.13738 9.6773 7.89165 9.61769 7.64592C9.60201 7.57976 9.58633 7.51361 9.56751 7.44745C9.5236 7.26788 9.47654 7.08516 9.42635 6.90559L9.35107 6.64096C9.30401 6.48344 9.25695 6.32592 9.20676 6.17155C9.17853 6.07704 9.14717 5.98568 9.1158 5.89117C9.06561 5.73995 9.01228 5.57613 8.95896 5.43437C8.92759 5.34616 8.89622 5.25795 8.86171 5.16659C8.79898 5.00277 8.7331 4.85155 8.66723 4.67513L8.58253 4.45776C8.48215 4.22463 8.38176 3.9915 8.26884 3.76153L8.2312 3.67962C8.13395 3.47799 8.03671 3.27637 7.93633 3.07475C7.89555 2.99914 7.85477 2.92353 7.81712 2.84792C7.7387 2.6967 7.65716 2.53288 7.5756 2.39742L7.43129 2.14539L7.31209 1.93746L7.6446 2.14539ZM20.051 12.6329L20.3929 12.5857C20.6345 12.551 20.876 12.5227 21.1175 12.4975L21.4312 12.4628C21.701 12.4376 21.9676 12.4187 22.2343 12.4061H22.4789C23.1847 12.3746 23.8937 12.3778 24.5995 12.4061H24.8504C25.1139 12.4219 25.3774 12.4408 25.6409 12.466L25.9546 12.5006C26.193 12.5258 26.4314 12.5573 26.6698 12.592L27.0117 12.6392L27.2031 12.6739C27.1466 12.7684 27.0965 12.8661 27.0431 12.9606C26.9427 13.1402 26.8424 13.3197 26.7451 13.4993C26.6479 13.6789 26.5036 13.9529 26.3844 14.1798L26.1115 14.7279C25.9985 14.9579 25.8887 15.191 25.7978 15.4273C25.7131 15.61 25.6284 15.7928 25.5468 15.9786C25.4464 16.2181 25.3461 16.4575 25.2331 16.7001C25.161 16.8859 25.0857 17.0687 25.0135 17.2545C24.9194 17.5034 24.8316 17.7523 24.7438 18.0043C24.6779 18.1839 24.612 18.3666 24.5524 18.5493C24.4646 18.8108 24.3862 19.0786 24.3046 19.3432C24.2513 19.5165 24.198 19.6866 24.1478 19.8599C24.0662 20.156 23.9909 20.4553 23.9156 20.7514C23.878 20.8995 23.8372 21.0444 23.8027 21.1925C23.6992 21.6367 23.6019 22.0872 23.5172 22.5377C23.4294 22.084 23.3353 21.6367 23.2287 21.1893C23.1942 21.0444 23.1534 20.8963 23.1157 20.7514C23.0404 20.4521 22.9652 20.1529 22.8805 19.8567C22.8334 19.6835 22.777 19.5133 22.7268 19.3432C22.6452 19.0754 22.5636 18.8077 22.4758 18.543C22.4162 18.3603 22.3503 18.1807 22.2876 18.0012C22.1998 17.7491 22.1088 17.4971 22.0147 17.2451C21.9457 17.0624 21.8704 16.8796 21.7951 16.6938C21.6979 16.4512 21.5975 16.2118 21.4814 15.9692C21.403 15.7865 21.3183 15.6006 21.2336 15.4179C21.1269 15.1847 21.0172 14.9485 20.9199 14.7185C20.8227 14.4885 20.738 14.353 20.647 14.1703C20.5309 13.9403 20.4086 13.7135 20.2863 13.4898C20.1639 13.2662 20.0886 13.1276 19.9726 12.9511C19.9192 12.8566 19.869 12.759 19.8126 12.6644L20.051 12.6329ZM29.2891 11.4484C29.4083 11.2751 29.5244 11.105 29.6467 10.9349L29.882 10.6199C30.0043 10.4529 30.1267 10.3048 30.2522 10.1253L30.4906 9.81022C30.6254 9.63695 30.7635 9.46683 30.9015 9.29671L31.1242 9.02893C31.2999 8.81891 31.4787 8.60888 31.6606 8.39886L31.7767 8.26654C31.9994 8.01766 32.2252 7.77509 32.4574 7.53251C32.517 7.4695 32.5829 7.40649 32.6456 7.34349C32.815 7.16707 32.9875 6.9938 33.1601 6.82368L33.4204 6.57795C33.5741 6.42988 33.7341 6.28182 33.8909 6.1369L34.1733 5.88487C34.3301 5.7431 34.487 5.60764 34.6469 5.47217L34.9387 5.22644C35.1049 5.08783 35.2712 4.95236 35.4406 4.82005L35.7166 4.59952L36.3095 4.15217L36.5165 4.00095C36.7863 3.80563 37.0592 3.61346 37.3353 3.42759L37.489 3.32992C37.7148 3.17871 37.9438 3.03064 38.1728 2.88572L38.4677 2.70615C38.6559 2.59274 38.841 2.47933 39.0323 2.36906L39.368 2.18004L39.6597 2.01622L39.5499 2.2147C39.5028 2.29976 39.4527 2.38481 39.4087 2.46987C39.3272 2.61479 39.2488 2.76286 39.1703 2.91093L39.048 3.1472C38.9539 3.33307 38.866 3.5221 38.7751 3.71112C38.7751 3.74892 38.7374 3.78988 38.7186 3.83083C38.6151 4.06081 38.5147 4.29079 38.4049 4.52391L38.3202 4.72869C38.2543 4.89566 38.1885 5.06262 38.1257 5.22959L38.0316 5.49422L37.8717 5.95103C37.8434 6.04554 37.8121 6.1369 37.7838 6.22826C37.7336 6.38263 37.6866 6.54329 37.6427 6.69451C37.6176 6.78272 37.5893 6.87093 37.5674 6.96229C37.5172 7.13871 37.4733 7.31828 37.4262 7.4947C37.4262 7.56401 37.3917 7.63017 37.376 7.69633C37.3196 7.94206 37.2662 8.18778 37.2161 8.43666L37.1878 8.59418C37.1502 8.7895 37.1125 8.98798 37.0812 9.18645L37.0435 9.45108C37.0184 9.6149 36.9965 9.78187 36.9745 9.94884C36.9745 10.0433 36.9526 10.141 36.94 10.2355L36.8929 10.7238C36.8929 10.8183 36.8929 10.9128 36.871 11.0105C36.871 11.1838 36.849 11.3602 36.8396 11.5335C36.8396 11.6154 36.8396 11.6973 36.8396 11.7823C36.8396 12.0375 36.8239 12.2959 36.8239 12.5542C36.8239 12.8692 36.8239 13.2032 36.8522 13.5277C36.8522 13.6127 36.8522 13.6978 36.8522 13.7797C36.8678 14.0947 36.8898 14.3814 36.9212 14.6807C36.9212 14.7059 36.9212 14.7311 36.9212 14.7563C36.9494 15.0083 36.9808 15.2635 37.0153 15.5155C36.7455 15.3265 36.4726 15.1469 36.1966 14.9737L36.0209 14.8603C35.748 14.6901 35.4688 14.5232 35.1896 14.3656L35.0422 14.2837C34.7818 14.1388 34.5215 13.9971 34.258 13.8647L34.1231 13.7923C33.8345 13.6474 33.5428 13.5119 33.251 13.3764L33.0534 13.2914C32.7554 13.1591 32.4511 13.0299 32.1468 12.9102L32.1092 12.8944C31.8112 12.7779 31.5132 12.6707 31.212 12.5794L31.0176 12.5101C30.7039 12.4093 30.4059 12.3116 30.0985 12.2234L29.929 12.1761C29.6436 12.0942 29.3581 12.0186 29.0695 11.9493L28.9754 11.9241C29.0037 11.88 29.0319 11.8328 29.0633 11.7886L29.2891 11.4484ZM45.877 22.0431V22.3424C45.877 22.7362 45.8456 23.13 45.8205 23.5206C45.8205 23.5206 45.8205 23.5364 45.8205 23.5427C45.7954 23.9427 45.7641 24.3428 45.7264 24.7398L45.6982 25.0359C45.6605 25.4203 45.6166 25.8046 45.5696 26.189C45.5696 26.189 45.5696 26.2142 45.5696 26.2268C45.5225 26.107 45.4692 25.9873 45.4221 25.8676C45.3751 25.7479 45.35 25.6912 45.3124 25.6061C45.212 25.3793 45.1116 25.1525 44.9987 24.932L44.9516 24.8312C44.8293 24.576 44.7038 24.3239 44.5752 24.0719L44.4529 23.8451C44.3587 23.6718 44.2646 23.4985 44.1674 23.3284C44.1172 23.2371 44.0639 23.1457 44.0105 23.0543C43.9196 22.9 43.8286 22.7393 43.7345 22.5912C43.678 22.4999 43.6184 22.4085 43.562 22.314L43.2483 21.8572L43.0789 21.6052C42.9566 21.4256 42.8311 21.2523 42.7056 21.0759L42.5895 20.9153C42.4233 20.6884 42.2508 20.4679 42.0751 20.2474L41.9276 20.0678C41.799 19.9071 41.6673 19.7528 41.5355 19.5952L41.3285 19.359C41.2093 19.2235 41.0901 19.088 40.9678 18.9557L40.7419 18.7163C40.6196 18.584 40.491 18.4548 40.3623 18.3257C40.2902 18.25 40.218 18.1744 40.1428 18.102C39.9953 17.9571 39.8479 17.8184 39.6973 17.6767L39.5217 17.5129C39.3125 17.3196 39.1034 17.1306 38.8943 16.9458L38.7594 16.8355L38.3234 16.4732C38.292 16.3157 38.2638 16.1582 38.2355 16.0007C38.2073 15.8432 38.1822 15.7203 38.1603 15.5785C38.132 15.3801 38.1069 15.1784 38.0818 14.9768C38.0818 14.8445 38.0473 14.7122 38.0348 14.5767C38.0097 14.353 37.9971 14.1294 37.9815 13.9025C37.9815 13.7923 37.9626 13.6789 37.9564 13.5686C37.9375 13.2315 37.9281 12.8913 37.9281 12.5542C37.9281 12.299 37.9281 12.0438 37.9438 11.7918C37.9438 11.7067 37.9438 11.6248 37.9438 11.5429C37.9438 11.3728 37.9532 11.2027 37.972 11.0326C37.972 10.9349 37.9909 10.8341 38.0003 10.7364C38.0003 10.5852 38.0254 10.4214 38.0442 10.2828C38.063 10.1442 38.0693 10.0717 38.085 9.96774C38.1006 9.86378 38.1195 9.68106 38.1414 9.53614C38.1634 9.39122 38.1791 9.32191 38.1948 9.2211C38.2104 9.12029 38.2418 8.94072 38.27 8.80211L38.3359 8.48707C38.3642 8.3516 38.3924 8.21299 38.4237 8.07752C38.4551 7.94206 38.4771 7.86015 38.5022 7.76249C38.5273 7.66482 38.5712 7.4947 38.6088 7.35924C38.6465 7.22377 38.6684 7.14501 38.6967 7.0442L38.819 6.64726C38.8504 6.54014 38.8849 6.43618 38.9194 6.33222C38.9539 6.22826 39.0104 6.07074 39.0574 5.93842C39.1045 5.80611 39.1295 5.7305 39.1703 5.62339C39.2111 5.51628 39.2707 5.36191 39.3209 5.22959L39.4432 4.93031C39.4997 4.79484 39.5593 4.66568 39.6158 4.53336C39.6722 4.40105 39.7005 4.33804 39.7475 4.24353C39.7946 4.14902 39.8761 3.9726 39.942 3.83713L40.0738 3.56935C40.149 3.42444 40.2275 3.27952 40.3059 3.1346C40.3498 3.05899 40.3874 2.98339 40.4282 2.90778C40.5412 2.7093 40.6572 2.51083 40.7764 2.31551L40.8109 2.25565C40.9364 2.05088 41.0681 1.8461 41.203 1.64448L41.4195 2.06978L41.6861 2.60534C41.7834 2.80381 41.8775 3.00229 41.9684 3.20391C42.0594 3.40553 42.1378 3.56305 42.2194 3.74262C42.3009 3.92219 42.3982 4.14902 42.486 4.35379C42.5739 4.55857 42.6429 4.71609 42.7181 4.89881C42.7934 5.08153 42.8844 5.3115 42.966 5.52888C43.0475 5.74625 43.1103 5.89117 43.1793 6.07074C43.2483 6.25031 43.3361 6.49604 43.4114 6.70081C43.4867 6.90559 43.5432 7.0631 43.6059 7.24583C43.6686 7.42855 43.7502 7.67743 43.8192 7.8759C43.8882 8.07437 43.9415 8.24134 43.998 8.42406L44.1925 9.08249C44.2458 9.26521 44.3023 9.44793 44.3525 9.6338C44.4027 9.81967 44.4717 10.078 44.5281 10.2985C44.5846 10.5191 44.6254 10.6671 44.6724 10.8498C44.7195 11.0326 44.7759 11.3035 44.8293 11.5303C44.8826 11.7571 44.914 11.8958 44.9548 12.0785C44.9955 12.2612 45.0457 12.5353 45.0928 12.7653C45.1398 12.9952 45.1649 13.1307 45.1994 13.3134C45.2433 13.5466 45.2778 13.7797 45.3186 14.0128C45.3469 14.1955 45.3814 14.3751 45.4096 14.5578C45.4441 14.7941 45.4755 15.0335 45.5068 15.2698C45.5319 15.4494 45.557 15.6289 45.579 15.8085C45.6104 16.0511 45.6323 16.2968 45.6574 16.5394C45.6762 16.7158 45.6982 16.8891 45.7139 17.0655C45.7358 17.3207 45.7515 17.5727 45.7703 17.8247C45.7703 17.9917 45.7986 18.1587 45.808 18.3288C45.8268 18.6092 45.8362 18.8927 45.8488 19.1762L45.8676 19.5921C45.8801 20.0121 45.8864 20.4322 45.8864 20.8522C45.9146 21.2429 45.8927 21.6587 45.8833 22.0431H45.877ZM33.2667 50.7649C30.9688 53.0041 28.4228 54.9712 25.6786 56.6278C24.9069 57.0846 24.1917 57.4847 23.5016 57.8407C22.7644 57.4595 22.0367 57.0531 21.3371 56.6341C18.5988 54.9855 16.0571 53.028 13.7615 50.7996C7.75255 44.9982 3.63578 37.5037 1.95428 29.3047L2.44677 29.5346L3.07415 29.8497C3.29687 29.9599 3.51333 30.0765 3.73291 30.1899C3.95249 30.3033 4.14384 30.401 4.36029 30.505L5.00961 30.8672L5.60876 31.2075L6.23614 31.5918L6.82274 31.951L7.45011 32.3574C7.64146 32.4834 7.83282 32.6062 8.02103 32.7354C8.20924 32.8646 8.42882 33.0189 8.64841 33.1639C8.86799 33.3088 9.02168 33.4253 9.20362 33.5577C9.38556 33.69 9.60516 33.8569 9.80592 34.0082L10.3455 34.4177C10.5431 34.5721 10.7376 34.7327 10.9352 34.8934C11.1328 35.0541 11.2834 35.1706 11.4559 35.3156C11.6285 35.4605 11.8418 35.6306 12.0331 35.8133C12.2245 35.996 12.3719 36.1032 12.535 36.2512C12.6981 36.3993 12.9146 36.5978 13.1028 36.771C13.291 36.9443 13.4165 37.0672 13.5859 37.2215C13.7553 37.3759 13.956 37.5838 14.1411 37.7665C14.3262 37.9493 14.4548 38.0816 14.6054 38.2265C14.7559 38.3714 14.9661 38.6077 15.148 38.7999C15.33 38.992 15.446 39.1149 15.5903 39.2661C15.7346 39.4173 15.9479 39.6694 16.1267 39.871C16.3055 40.0726 16.4059 40.186 16.5408 40.3404C16.7259 40.5546 16.9047 40.7783 17.0866 40.9957C17.209 41.1469 17.3376 41.2949 17.4568 41.4462C17.6513 41.6887 17.8395 41.9376 18.0308 42.1833C18.1312 42.3188 18.2379 42.448 18.3445 42.5834C18.6247 42.9573 18.8987 43.3353 19.1664 43.7176L19.1883 43.7522C19.3766 44.0169 19.5585 44.2878 19.7373 44.5556C20.2768 45.3684 20.7882 46.198 21.2712 47.0444C21.9174 48.1722 22.5103 49.3315 23.0467 50.5098C23.0917 50.6042 23.1625 50.6839 23.2508 50.7397C23.339 50.7954 23.4412 50.8249 23.5455 50.8248C23.6213 50.8226 23.6959 50.8055 23.7651 50.7744C23.8887 50.7225 23.9884 50.6258 24.0443 50.5035C25.1202 48.1266 26.4096 45.8531 27.8963 43.7113C28.1724 43.3185 28.4547 42.93 28.7433 42.5456C28.8406 42.4165 28.9441 42.2905 29.057 42.1613C29.2515 41.9093 29.4428 41.6572 29.6405 41.4115L30.0106 40.9673C30.1925 40.7468 30.3713 40.5263 30.5564 40.312C30.6944 40.1514 30.8325 39.997 30.9705 39.8426C31.1085 39.6883 31.325 39.4394 31.5069 39.2409C31.6889 39.0424 31.8206 38.9259 31.9555 38.7715C32.0904 38.6171 32.31 38.3935 32.4919 38.2076L32.9656 37.7413C33.1444 37.5618 33.3263 37.3822 33.5114 37.2058C33.6965 37.0294 33.8408 36.8907 34.0039 36.749C34.167 36.6072 34.3709 36.4056 34.5591 36.2386L35.0704 35.7944L35.6382 35.3093L36.1715 34.8777C36.3628 34.7233 36.5542 34.5626 36.7487 34.4146C36.9431 34.2665 37.1125 34.1373 37.2945 34.0019C37.4764 33.8664 37.6866 33.6868 37.8873 33.5577L38.4488 33.1607C38.6496 33.0189 38.8504 32.8772 39.0511 32.7417L39.6283 32.3605C39.8322 32.2251 40.0393 32.0927 40.2557 31.9604C40.4721 31.8281 40.6478 31.721 40.8423 31.6013C41.0368 31.4816 41.2626 31.343 41.4697 31.2201C41.6767 31.0972 41.868 30.9933 42.0657 30.8799C42.2633 30.7664 42.4954 30.6373 42.7119 30.5207L43.3236 30.2057C43.5431 30.0923 43.7596 29.9788 43.9823 29.8686C44.205 29.7583 44.3933 29.667 44.6097 29.5693L45.0583 29.3551C43.3678 37.5213 39.2599 44.9841 33.273 50.7649H33.2667Z" fill="#A97DA2"/>
</g>
<defs>
<clipPath id="clip0_7_9">
<rect width="47" height="59" fill="white"/>
</clipPath>
</defs>
</svg>
